<svg width="1024" height="1024" viewBox="0 0 1024 1024" xmlns="http://www.w3.org/2000/svg">
  <defs>
    <linearGradient id="logoGradient" x1="0%" y1="0%" x2="100%" y2="100%">
      <stop offset="0%" style="stop-color:#667eea;stop-opacity:1" />
      <stop offset="100%" style="stop-color:#764ba2;stop-opacity:1" />
    </linearGradient>
  </defs>
  
  <!-- Background rounded rectangle -->
  <rect x="0" y="0" width="1024" height="1024" rx="180" fill="url(#logoGradient)" />
  
  <!-- Kanban columns representation -->
  <rect x="200" y="200" width="150" height="624" rx="50" fill="white" opacity="0.9" />
  <rect x="387" y="200" width="150" height="624" rx="50" fill="white" opacity="0.7" />
  <rect x="574" y="200" width="150" height="624" rx="50" fill="white" opacity="0.5" />
  
  <!-- Task cards in first column -->
  <rect x="225" y="250" width="100" height="80" rx="25" fill="#4a5568" />
  <rect x="225" y="360" width="100" height="80" rx="25" fill="#4a5568" />
  <rect x="225" y="470" width="100" height="80" rx="25" fill="#4a5568" />
  
  <!-- Task cards in second column -->
  <rect x="412" y="300" width="100" height="80" rx="25" fill="#4a5568" />
  <rect x="412" y="410" width="100" height="80" rx="25" fill="#4a5568" />
  
  <!-- Task cards in third column -->
  <rect x="599" y="350" width="100" height="80" rx="25" fill="#4a5568" />
  <rect x="599" y="460" width="100" height="80" rx="25" fill="#4a5568" />
  <rect x="599" y="570" width="100" height="80" rx="25" fill="#4a5568" />
  <rect x="599" y="680" width="100" height="80" rx="25" fill="#4a5568" />
</svg>